<svg width="24" height="24" xmlns="http://www.w3.org/2000/svg">

 <g>
  <title>background</title>
  <rect fill="none" id="canvas_background" height="402" width="582" y="-1" x="-1"/>
 </g>
 <g>
  <title>Layer 1</title>
  <g stroke="null" id="svg_1">
   <path stroke="#0124dc" id="svg_2" fill="#f6c700" d="m10.9375,0.875c-3.762459,0 -6.8125,3.259907 -6.8125,7.28125c0,1.293332 0.324956,2.50293 0.878131,3.55507c0.091884,0.17475 0.188195,0.34677 0.292767,0.512418l5.641602,10.495012l5.641602,-10.495012c0.086859,-0.137434 0.161797,-0.283059 0.239289,-0.426863l0.053648,-0.085555c0.552664,-1.052141 0.877961,-2.261738 0.877961,-3.55507c0,-4.021343 -3.050297,-7.28125 -6.8125,-7.28125zm0,3.640625c1.881102,0 3.40625,1.629999 3.40625,3.640625c0,2.010535 -1.525148,3.640625 -3.40625,3.640625c-1.881187,0 -3.40625,-1.63009 -3.40625,-3.640625c0,-2.010626 1.525063,-3.640625 3.40625,-3.640625z"/>
   <path stroke="#0124dc" id="svg_3" fill="#f6c700" d="m10.9375,3.605469c-2.351505,0 -4.257813,2.037476 -4.257813,4.550781c0,2.512941 1.906308,4.550781 4.257813,4.550781c2.351164,0 4.257813,-2.03784 4.257813,-4.550781c0,-2.513305 -1.906648,-4.550781 -4.257813,-4.550781zm0,1.820312c1.411039,0 2.554688,1.222431 2.554688,2.730469s-1.143648,2.730469 -2.554688,2.730469s-2.554688,-1.222431 -2.554688,-2.730469s1.143648,-2.730469 2.554688,-2.730469z"/>
  </g>
 </g>
</svg>